<svg id="Layer_1" data-name="Layer 1" xmlns="http://www.w3.org/2000/svg" viewBox="0 0 128 128"><defs><style>.cls-1{fill:#fce56e;}.cls-2{fill:#5da8be;}</style></defs><rect class="cls-1" x="0.25" width="128" height="128"/><path class="cls-2" d="M70.6,63.87h.92c.09,0,.09,0,.18-.09s.09,0,.18-.09.09-.09.18-.09.09-.09.19-.09L81,54.74a1.81,1.81,0,0,0-2.56-2.56l-5.38,5.48V36.28a1.83,1.83,0,0,0-3.65,0V58.21l-6-6a1.81,1.81,0,0,0-2.56,2.56l8.49,8.49a1.6,1.6,0,0,0,1.28.64Z"/><path class="cls-2" d="M71.52,64.24H70.6A1.93,1.93,0,0,1,69,63.46L60.57,55a2.13,2.13,0,0,1,0-3.08,2.13,2.13,0,0,1,3.08,0l5.4,5.4v-21a2.2,2.2,0,0,1,4.39,0V56.76l4.75-4.83A2.17,2.17,0,1,1,81.27,55L72.4,63.88h-.06a.34.34,0,0,1-.16.07.41.41,0,0,1-.11.07.47.47,0,0,1-.21.11A.45.45,0,0,1,71.52,64.24ZM62.11,52a1.52,1.52,0,0,0-1.46,1.46,1.48,1.48,0,0,0,.44,1L69.59,63a1.25,1.25,0,0,0,1,.53h.85l0,0,.12,0,.13-.08a.42.42,0,0,1,.2-.11l.1-.06,8.7-8.7a1.44,1.44,0,0,0-2-2l-6,6.12V36.28a1.46,1.46,0,0,0-2.91,0V59.1l-6.66-6.65A1.44,1.44,0,0,0,62.11,52ZM71.7,63.41h0Zm.18-.09-.1,0,.1,0Z"/><rect class="cls-2" x="75.83" y="28.29" width="1.62" height="8.65" rx="0.74"/><rect class="cls-2" x="79.57" y="32.82" width="1.62" height="7.29" rx="0.74"/><rect class="cls-2" x="82.95" y="29.56" width="1.62" height="4.62" rx="0.74"/><rect class="cls-2" x="82.87" y="26.03" width="1.62" height="3.05" rx="0.74"/><rect class="cls-2" x="75.76" y="23.8" width="1.62" height="3.05" rx="0.74"/><rect class="cls-2" x="63.64" y="34.51" width="1.62" height="8.65" rx="0.74"/><rect class="cls-2" x="59.9" y="39.04" width="1.62" height="7.29" rx="0.74"/><rect class="cls-2" x="56.52" y="35.78" width="1.62" height="4.62" rx="0.74"/><rect class="cls-2" x="56.59" y="32.25" width="1.62" height="3.05" rx="0.74"/><rect class="cls-2" x="63.71" y="30.03" width="1.62" height="3.05" rx="0.74"/><path class="cls-2" d="M89.6,93.3a5.45,5.45,0,1,0,5.45,5.45A5.45,5.45,0,0,0,89.6,93.3Zm0,6.68a1.24,1.24,0,1,1,1.23-1.23A1.23,1.23,0,0,1,89.6,100Z"/><path class="cls-2" d="M53.05,93.3a5.45,5.45,0,1,0,5.45,5.45A5.45,5.45,0,0,0,53.05,93.3Zm0,6.68a1.24,1.24,0,1,1,1.23-1.23A1.24,1.24,0,0,1,53.05,100Z"/><path class="cls-2" d="M98.75,48.35a.58.58,0,0,0-.54.44l-.55,3h0c-.23,1.26-.43,2.42-.64,3.58q-1.22,6.57-2.45,13.15a2.18,2.18,0,0,1-2.41,2l-36.48.77-4,.11A2.62,2.62,0,0,1,49.14,70q-4.56-8.52-9.09-17h0l-.13-.25h0s-1.93-3.55-3-5.15l-.61-.77h0a25,25,0,0,0-2.15-2.44,9.52,9.52,0,0,0-7-2.53A1.48,1.48,0,1,0,27,44.73c.26,0,.51.05.76.05A6.82,6.82,0,0,1,33,47.32,20.42,20.42,0,0,1,35.4,50.8c3.51,6.42,6.94,12.87,10.41,19.3.58,1.07,1.25,2.1,1.93,3.26a.74.74,0,0,1-.12.13c-3.08,2.9-4,6.71-2.59,10.35A9.37,9.37,0,0,0,54,89.55c12.89-.08,25.79,0,38.68,0,.32,0,.63,0,1,0a1.36,1.36,0,0,0,1.3-1.28,1.33,1.33,0,0,0-1-1.56,4.39,4.39,0,0,0-1.31-.13H57.18c-1.37,0-2.73,0-4.09,0a6.07,6.07,0,0,1-5.7-5.9c0-3.53,2.66-6.18,6.47-6.26l38.47-.8a5.17,5.17,0,0,0,5.2-4.37q1.65-8.91,3.28-17.82C101.19,49.33,100.78,48.37,98.75,48.35Z"/><path class="cls-2" d="M53.89,91.22a11,11,0,0,1-10.4-6.77,10.65,10.65,0,0,1,2.17-11.32c-.47-.76-.91-1.48-1.32-2.24L40.5,63.76c-2.14-4-4.35-8.12-6.56-12.16a19.84,19.84,0,0,0-2.26-3.2,5.13,5.13,0,0,0-4-1.95,9.06,9.06,0,0,1-.91-.07,3.14,3.14,0,0,1,.28-6.27,11.14,11.14,0,0,1,8.24,3,26.47,26.47,0,0,1,2.31,2.62l.69.89c.91,1.38,2.39,4,2.95,5.06l.12.06.19.52,9,16.94a1,1,0,0,0,1,.58l1.13,0,2.87-.08,36.47-.77c.65,0,.69,0,.81-.68Q94,62.67,95,57.13l.39-2.07c.1-.54.19-1.07.29-1.62h0l.91-4.95a2.24,2.24,0,0,1,2.17-1.81h0a4,4,0,0,1,3.11,1.22,4.47,4.47,0,0,1,.58,3.76q-1.64,8.91-3.28,17.82a6.81,6.81,0,0,1-6.8,5.73l-11.17.23L53.89,76C51,76.08,49,78,49.06,80.58a4.36,4.36,0,0,0,4.1,4.26c1,0,1.9,0,2.91,0H92.62a5.91,5.91,0,0,1,1.82.21,3.13,3.13,0,0,1-.68,6.08,7,7,0,0,1-.89,0H81.77c-9.11,0-18.54,0-27.8,0ZM49.1,72.38l.08.12.12.22.06.23A1.64,1.64,0,0,1,49.27,74a8.47,8.47,0,0,1,2-.93A4.38,4.38,0,0,1,49.1,72.38ZM98.73,50Z"/></svg>